{
    "asset" : {
        "generator" : "Khronos glTF Blender I/O v1.2.75",
        "version" : "2.0"
    },
    "scene" : 0,
    "scenes" : [
        {
            "name" : "Scene",
            "nodes" : [
                0,
                1
            ]
        }
    ],
    "nodes" : [
        {       
            "mesh" : 0,
            "name" : "text",
            "rotation" : [
                0.7071068286895752,
                0,
                0,
                0.7071067094802856
            ]
        },
        {
            "mesh" : 1,
            "name" : "Body_MC003_Kozakura_Mari_face",
            "rotation" : [
                0.7071068286895752,
                0,
                0,
                0.7071067094802856
            ]
        }
    ],
    "materials" : [
        {
            "doubleSided" : true,
            "emissiveFactor" : [
                0,
                0,
                0
            ],
            "name" : "Material1",
            "pbrMetallicRoughness" : {
                "baseColorFactor" : [
                    0.2705880105495453,
                    0.5529410243034363,
                    0.8745099902153015,
                    1
                ],
                "metallicFactor" : 0,
                "roughnessFactor" : 0
            }
        },
        {
            "doubleSided" : true,
            "emissiveFactor" : [
                0,
                0,
                0
            ],
            "name" : "MC003_Kozakura_Mari",
            "pbrMetallicRoughness" : {
                "baseColorTexture" : {
                    "index" : 0,
                    "texCoord" : 0
                },
                "metallicFactor" : 0,
                "roughnessFactor" : 0
            }
        }
    ],
    "meshes" : [
        {
            "name" : "text",
            "primitives" : [
                {
                    "attributes" : {
                        "POSITION" : 0,
                        "NORMAL" : 1,
                        "TEXCOORD_0" : 2
                    },
                    "indices" : 3,
                    "material" : 0
                }
            ]
        },
        {
            "name" : "Body_MC003_Kozakura_Mari_face",
            "primitives" : [
                {
                    "attributes" : {
                        "POSITION" : 4,
                        "NORMAL" : 5,
                        "TEXCOORD_0" : 6
                    },
                    "indices" : 7,
                    "material" : 1
                }
            ]
        }
    ],
    "textures" : [
        {
            "source" : 0
        }
    ],
    "images" : [
        {
            "mimeType" : "image/png",
            "name" : "MC003_Kozakura_Mari",
            "uri" : "MC003_Kozakura_Mari.png"
        }
    ],
    "accessors" : [
        {
            "bufferView" : 0,
            "componentType" : 5126,
            "count" : 810,
            "max" : [
                0.14649200439453125,
                0.4377560019493103,
                -1.702010989189148
            ],
            "min" : [
                -0.1582069993019104,
                0.30840998888015747,
                -1.8854509592056274
            ],
            "type" : "VEC3"
        },
        {
            "bufferView" : 1,
            "componentType" : 5126,
            "count" : 810,
            "type" : "VEC3"
        },
        {
            "bufferView" : 2,
            "componentType" : 5126,
            "count" : 810,
            "type" : "VEC2"
        },
        {
            "bufferView" : 3,
            "componentType" : 5123,
            "count" : 810,
            "type" : "SCALAR"
        },
        {
            "bufferView" : 4,
            "componentType" : 5126,
            "count" : 7145,
            "max" : [
                0.9433760046958923,
                0.7083500027656555,
                -0.0011940000113099813
            ],
            "min" : [
                -0.9436240196228027,
                -1.1618870496749878,
                -3.4071850776672363
            ],
            "type" : "VEC3"
        },
        {
            "bufferView" : 5,
            "componentType" : 5126,
            "count" : 7145,
            "type" : "VEC3"
        },
        {
            "bufferView" : 6,
            "componentType" : 5126,
            "count" : 7145,
            "type" : "VEC2"
        },
        {
            "bufferView" : 7,
            "componentType" : 5123,
            "count" : 29712,
            "type" : "SCALAR"
        }
    ],
    "bufferViews" : [
        {
            "buffer" : 0,
            "byteLength" : 9720,
            "byteOffset" : 0
        },
        {
            "buffer" : 0,
            "byteLength" : 9720,
            "byteOffset" : 9720
        },
        {
            "buffer" : 0,
            "byteLength" : 6480,
            "byteOffset" : 19440
        },
        {
            "buffer" : 0,
            "byteLength" : 1620,
            "byteOffset" : 25920
        },
        {
            "buffer" : 0,
            "byteLength" : 85740,
            "byteOffset" : 27540
        },
        {
            "buffer" : 0,
            "byteLength" : 85740,
            "byteOffset" : 113280
        },
        {
            "buffer" : 0,
            "byteLength" : 57160,
            "byteOffset" : 199020
        },
        {
            "buffer" : 0,
            "byteLength" : 59424,
            "byteOffset" : 256180
        }
    ],
    "buffers" : [
        {
            "byteLength" : 315604,
            "uri" : "mary.bin"
        }
    ]
}
